<svg width="132" height="117" viewBox="0 0 132 117" fill="none" xmlns="http://www.w3.org/2000/svg">
<g id="triangle">
<path id="Vector" d="M75.7711 10.3188C75.7711 16.016 71.1522 20.6349 65.4551 20.6349C59.7579 20.6349 55.1362 16.016 55.1362 10.3188C55.1362 4.62169 59.7579 3.8147e-06 65.4551 3.8147e-06C71.1522 3.8147e-06 75.7711 4.62169 75.7711 10.3188Z" fill="#5B0017"/>
<path id="Vector_2" d="M57.7354 41.7326C57.7354 47.4298 53.1166 52.0515 47.4194 52.0515C41.7194 52.0515 37.1006 47.4298 37.1006 41.7326C37.1006 36.0327 41.7194 31.4138 47.4194 31.4138C53.1166 31.4138 57.7354 36.0327 57.7354 41.7326Z" fill="#5B0017"/>
<path id="Vector_3" d="M93.8077 41.7326C93.8077 47.4298 89.1888 52.0515 83.4889 52.0515C77.7917 52.0515 73.1729 47.4298 73.1729 41.7326C73.1729 36.0327 77.7917 31.4138 83.4889 31.4138C89.1888 31.4138 93.8077 36.0327 93.8077 41.7326Z" fill="#5B0017"/>
<path id="Vector_4" d="M57.7562 105.788C57.7562 111.485 53.1373 116.107 47.4402 116.107C41.7402 116.107 37.1213 111.485 37.1213 105.788C37.1213 100.091 41.7402 95.4688 47.4402 95.4688C53.1373 95.4688 57.7562 100.091 57.7562 105.788Z" fill="#5B0017"/>
<path id="Vector_5" d="M20.6349 105.788C20.6349 111.485 16.016 116.107 10.316 116.107C4.61886 116.107 0 111.485 0 105.788C0 100.091 4.61886 95.4688 10.316 95.4688C16.016 95.4688 20.6349 100.091 20.6349 105.788Z" fill="#5B0017"/>
<path id="Vector_6" d="M132 105.788C132 111.485 127.381 116.107 121.684 116.107C115.984 116.107 111.365 111.485 111.365 105.788C111.365 100.091 115.984 95.4688 121.684 95.4688C127.381 95.4688 132 100.091 132 105.788Z" fill="#5B0017"/>
<path id="Vector_7" d="M94.8787 105.788C94.8787 111.485 90.2599 116.107 84.5599 116.107C78.8628 116.107 74.2439 111.485 74.2439 105.788C74.2439 100.091 78.8628 95.4688 84.5599 95.4688C90.2599 95.4688 94.8787 100.091 94.8787 105.788Z" fill="#5B0017"/>
<path id="Vector_8" d="M40.6341 73.3691C40.6341 79.0663 36.0153 83.688 30.3153 83.688C24.6181 83.688 19.9993 79.0663 19.9993 73.3691C19.9993 67.672 24.6181 63.0531 30.3153 63.0531C36.0153 63.0531 40.6341 67.672 40.6341 73.3691Z" fill="#5B0017"/>
<path id="Vector_9" d="M76.0142 73.3691C76.0142 79.0663 71.3954 83.688 65.6954 83.688C59.9983 83.688 55.3794 79.0663 55.3794 73.3691C55.3794 67.672 59.9983 63.0531 65.6954 63.0531C71.3954 63.0531 76.0142 67.672 76.0142 73.3691Z" fill="#5B0017"/>
<path id="Vector_10" d="M111.394 73.3691C111.394 79.0663 106.775 83.688 101.075 83.688C95.3781 83.688 90.7593 79.0663 90.7593 73.3691C90.7593 67.672 95.3781 63.0531 101.075 63.0531C106.775 63.0531 111.394 67.672 111.394 73.3691Z" fill="#5B0017"/>
</g>
</svg>
